ffmpeg started on 2026-01-16 at 16:43:45
Report written to "D:\Convert\FFMetrics\reports\psnr_report-6.txt"
Log level: 32
Command line:
ffmpeg -hide_banner -nostdin -r 24000/1001 -i "F:\\Convert\\files\\[DC] Make Heroine ga Oosugiru - 07_Telegram_HEVC(HB-6).mkv" -r 24000/1001 -i "F:\\Convert\\files\\[DC] Make Heroine ga Oosugiru - 07_Telegram.mp4" -lavfi "[0:v]settb=AVTB,setpts=PTS-STARTPTS,format=pix_fmts=yuv420p10le,fps=24000/1001,scale=1920:1080:flags=lanczos:param0=3:out_range=limited:out_color_matrix=bt709:out_chroma_loc=left,setsar=1/1,setdar=(1920/1080)*(1/1),colorspace=format=yuv420p10:range=tv:primaries=bt709:trc=bt709:space=bt709:fast=0[main];[1:v]settb=AVTB,setpts=PTS-STARTPTS,format=pix_fmts=yuv420p,fps=24000/1001,scale=1920:1080:flags=lanczos:param0=3:out_range=limited:out_color_matrix=bt709:out_chroma_loc=left,setsar=1.000,setdar=1.778,colorspace=format=yuv420p:range=tv:primaries=bt709:trc=bt709:space=bt709:fast=0[ref];[main][ref]psnr=eof_action=endall:stats_file='D\\:/Convert/FFMetrics/logs/psnr_logfile-6.txt'" -f null -
Input #0, matroska,webm, from 'F:\Convert\files\[DC] Make Heroine ga Oosugiru - 07_Telegram_HEVC(HB-6).mkv':
  Metadata:
    creation_time   : 2026-01-16T08:05:10.000000Z
    ENCODER         : Lavf61.7.100
  Duration: 00:24:06.81, start: -0.021000, bitrate: 910 kb/s
  Stream #0:0: Video: hevc (Main 10), yuv420p10le(tv, bt709), 1920x1080 [SAR 1:1 DAR 16:9], 23.98 fps, 23.98 tbr, 1k tbn (default)
      Metadata:
        BPS             : 713578
        DURATION        : 00:24:06.569708333
        NUMBER_OF_FRAMES: 34683
        NUMBER_OF_BYTES : 129029979
        _STATISTICS_WRITING_APP: mkvpropedit v94.0 ('Initiate') 64-bit
        _STATISTICS_WRITING_DATE_UTC: 2026-01-16 13:43:45
        _STATISTICS_TAGS: BPS DURATION NUMBER_OF_FRAMES NUMBER_OF_BYTES
  Stream #0:1: Audio: aac (LC), 48000 Hz, stereo, fltp (default)
      Metadata:
        title           : Stereo
        BPS             : 193190
        DURATION        : 00:24:06.784000000
        NUMBER_OF_FRAMES: 67819
        NUMBER_OF_BYTES : 34938166
        _STATISTICS_WRITING_APP: mkvpropedit v94.0 ('Initiate') 64-bit
        _STATISTICS_WRITING_DATE_UTC: 2026-01-16 13:43:45
        _STATISTICS_TAGS: BPS DURATION NUMBER_OF_FRAMES NUMBER_OF_BYTES
Input #1, mov,mp4,m4a,3gp,3g2,mj2, from 'F:\Convert\files\[DC] Make Heroine ga Oosugiru - 07_Telegram.mp4':
  Metadata:
    major_brand     : isom
    minor_version   : 512
    compatible_brands: isomiso2avc1mp41
    encoder         : Lavf60.16.100
  Duration: 00:24:06.74, start: 0.000000, bitrate: 3764 kb/s
  Stream #1:0[0x1](und): Video: h264 (High) (avc1 / 0x31637661), yuv420p(tv, bt709, progressive), 1920x1080 [SAR 1:1 DAR 16:9], 3616 kb/s, 23.98 fps, 23.98 tbr, 24k tbn (default)
      Metadata:
        handler_name    : VideoHandler
        vendor_id       : [0][0][0][0]
        encoder         : Lavc60.31.102 h264_qsv
  Stream #1:1[0x2](und): Audio: aac (HE-AACv2) (mp4a / 0x6134706D), 48000 Hz, stereo, fltp, 144 kb/s (default)
      Metadata:
        handler_name    : SoundHandler
        vendor_id       : [0][0][0][0]
Stream mapping:
  Stream #0:0 (hevc) -> settb:default
  Stream #1:0 (h264) -> settb:default
  psnr:default -> Stream #0:0 (wrapped_avframe)
  Stream #0:1 -> #0:1 (aac (native) -> pcm_s16le (native))
Output #0, null, to 'pipe:':
  Metadata:
    encoder         : Lavf61.7.100
  Stream #0:0: Video: wrapped_avframe, yuv420p10le(tv, bt709, progressive), 1920x1080 [SAR 1:1 DAR 16:9], q=2-31, 200 kb/s, 23.98 fps, 23.98 tbn
      Metadata:
        encoder         : Lavc61.19.100 wrapped_avframe
  Stream #0:1: Audio: pcm_s16le, 48000 Hz, stereo, s16, 1536 kb/s (default)
      Metadata:
        title           : Stereo
        BPS             : 193190
        DURATION        : 00:24:06.784000000
        NUMBER_OF_FRAMES: 67819
        NUMBER_OF_BYTES : 34938166
        _STATISTICS_WRITING_APP: mkvpropedit v94.0 ('Initiate') 64-bit
        _STATISTICS_WRITING_DATE_UTC: 2026-01-16 13:43:45
        _STATISTICS_TAGS: BPS DURATION NUMBER_OF_FRAMES NUMBER_OF_BYTES
        encoder         : Lavc61.19.100 pcm_s16le
frame=  125 fps=0.0 q=-0.0 size=N/A time=00:00:05.21 bitrate=N/A speed=10.1x    frame=  331 fps=322 q=-0.0 size=N/A time=00:00:13.80 bitrate=N/A speed=13.5x    frame=  539 fps=351 q=-0.0 size=N/A time=00:00:22.48 bitrate=N/A speed=14.6x    frame=  755 fps=366 q=-0.0 size=N/A time=00:00:31.48 bitrate=N/A speed=15.3x    frame=  928 fps=360 q=-0.0 size=N/A time=00:00:38.70 bitrate=N/A speed=  15x    frame= 1082 fps=350 q=-0.0 size=N/A time=00:00:45.12 bitrate=N/A speed=14.6x    frame= 1241 fps=345 q=-0.0 size=N/A time=00:00:51.76 bitrate=N/A speed=14.4x    frame= 1410 fps=342 q=-0.0 size=N/A time=00:00:58.80 bitrate=N/A speed=14.2x    frame= 1554 fps=335 q=-0.0 size=N/A time=00:01:04.81 bitrate=N/A speed=  14x    frame= 1709 fps=332 q=-0.0 size=N/A time=00:01:11.27 bitrate=N/A speed=13.8x    frame= 1880 fps=332 q=-0.0 size=N/A time=00:01:18.41 bitrate=N/A speed=13.8x    frame= 2046 fps=331 q=-0.0 size=N/A time=00:01:25.33 bitrate=N/A speed=13.8x    frame= 2158 fps=322 q=-0.0 size=N/A time=00:01:30.00 bitrate=N/A speed=13.4x    frame= 2318 fps=321 q=-0.0 size=N/A time=00:01:36.67 bitrate=N/A speed=13.4x    frame= 2459 fps=318 q=-0.0 size=N/A time=00:01:42.56 bitrate=N/A speed=13.3x    frame= 2602 fps=315 q=-0.0 size=N/A time=00:01:48.52 bitrate=N/A speed=13.2x    frame= 2782 fps=318 q=-0.0 size=N/A time=00:01:56.03 bitrate=N/A speed=13.2x    frame= 2956 fps=318 q=-0.0 size=N/A time=00:02:03.28 bitrate=N/A speed=13.3x    frame= 3158 fps=323 q=-0.0 size=N/A time=00:02:11.71 bitrate=N/A speed=13.5x    frame= 3367 fps=326 q=-0.0 size=N/A time=00:02:20.43 bitrate=N/A speed=13.6x    frame= 3575 fps=330 q=-0.0 size=N/A time=00:02:29.10 bitrate=N/A speed=13.8x    frame= 3781 fps=333 q=-0.0 size=N/A time=00:02:37.69 bitrate=N/A speed=13.9x    frame= 3981 fps=335 q=-0.0 size=N/A time=00:02:46.04 bitrate=N/A speed=  14x    frame= 4195 fps=338 q=-0.0 size=N/A time=00:02:54.96 bitrate=N/A speed=14.1x    frame= 4394 fps=341 q=-0.0 size=N/A time=00:03:03.26 bitrate=N/A speed=14.2x    frame= 4594 fps=342 q=-0.0 size=N/A time=00:03:11.60 bitrate=N/A speed=14.3x    frame= 4803 fps=345 q=-0.0 size=N/A time=00:03:20.32 bitrate=N/A speed=14.4x    frame= 5004 fps=346 q=-0.0 size=N/A time=00:03:28.70 bitrate=N/A speed=14.4x    frame= 5201 fps=348 q=-0.0 size=N/A time=00:03:36.92 bitrate=N/A speed=14.5x    frame= 5402 fps=349 q=-0.0 size=N/A time=00:03:45.30 bitrate=N/A speed=14.5x    frame= 5610 fps=351 q=-0.0 size=N/A time=00:03:53.98 bitrate=N/A speed=14.6x    frame= 5819 fps=352 q=-0.0 size=N/A time=00:04:02.70 bitrate=N/A speed=14.7x    frame= 6023 fps=354 q=-0.0 size=N/A time=00:04:11.20 bitrate=N/A speed=14.8x    frame= 6227 fps=355 q=-0.0 size=N/A time=00:04:19.71 bitrate=N/A speed=14.8x    frame= 6426 fps=356 q=-0.0 size=N/A time=00:04:28.01 bitrate=N/A speed=14.8x    frame= 6633 fps=357 q=-0.0 size=N/A time=00:04:36.65 bitrate=N/A speed=14.9x    frame= 6835 fps=358 q=-0.0 size=N/A time=00:04:45.07 bitrate=N/A speed=14.9x    frame= 7040 fps=359 q=-0.0 size=N/A time=00:04:53.62 bitrate=N/A speed=  15x    frame= 7238 fps=360 q=-0.0 size=N/A time=00:05:01.88 bitrate=N/A speed=  15x    frame= 7437 fps=360 q=-0.0 size=N/A time=00:05:10.18 bitrate=N/A speed=  15x    frame= 7625 fps=360 q=-0.0 size=N/A time=00:05:18.02 bitrate=N/A speed=  15x    frame= 7821 fps=361 q=-0.0 size=N/A time=00:05:26.20 bitrate=N/A speed=15.1x    frame= 8017 fps=361 q=-0.0 size=N/A time=00:05:34.37 bitrate=N/A speed=15.1x    frame= 8212 fps=362 q=-0.0 size=N/A time=00:05:42.50 bitrate=N/A speed=15.1x    frame= 8397 fps=362 q=-0.0 size=N/A time=00:05:50.22 bitrate=N/A speed=15.1x    frame= 8600 fps=362 q=-0.0 size=N/A time=00:05:58.69 bitrate=N/A speed=15.1x    frame= 8799 fps=363 q=-0.0 size=N/A time=00:06:06.99 bitrate=N/A speed=15.1x    frame= 8993 fps=363 q=-0.0 size=N/A time=00:06:15.08 bitrate=N/A speed=15.1x    frame= 9211 fps=364 q=-0.0 size=N/A time=00:06:24.17 bitrate=N/A speed=15.2x    frame= 9406 fps=365 q=-0.0 size=N/A time=00:06:32.30 bitrate=N/A speed=15.2x    frame= 9607 fps=365 q=-0.0 size=N/A time=00:06:40.69 bitrate=N/A speed=15.2x    frame= 9814 fps=366 q=-0.0 size=N/A time=00:06:49.32 bitrate=N/A speed=15.3x    frame=10017 fps=366 q=-0.0 size=N/A time=00:06:57.79 bitrate=N/A speed=15.3x    frame=10216 fps=367 q=-0.0 size=N/A time=00:07:06.09 bitrate=N/A speed=15.3x    frame=10414 fps=367 q=-0.0 size=N/A time=00:07:14.35 bitrate=N/A speed=15.3x    frame=10614 fps=367 q=-0.0 size=N/A time=00:07:22.69 bitrate=N/A speed=15.3x    frame=10805 fps=367 q=-0.0 size=N/A time=00:07:30.65 bitrate=N/A speed=15.3x    frame=11004 fps=368 q=-0.0 size=N/A time=00:07:38.95 bitrate=N/A speed=15.3x    frame=11198 fps=368 q=-0.0 size=N/A time=00:07:47.04 bitrate=N/A speed=15.3x    frame=11395 fps=368 q=-0.0 size=N/A time=00:07:55.26 bitrate=N/A speed=15.3x    frame=11591 fps=368 q=-0.0 size=N/A time=00:08:03.44 bitrate=N/A speed=15.4x    frame=11781 fps=368 q=-0.0 size=N/A time=00:08:11.36 bitrate=N/A speed=15.4x    frame=11966 fps=368 q=-0.0 size=N/A time=00:08:19.08 bitrate=N/A speed=15.4x    frame=12154 fps=368 q=-0.0 size=N/A time=00:08:26.92 bitrate=N/A speed=15.3x    frame=12348 fps=368 q=-0.0 size=N/A time=00:08:35.01 bitrate=N/A speed=15.4x    frame=12558 fps=369 q=-0.0 size=N/A time=00:08:43.77 bitrate=N/A speed=15.4x    frame=12753 fps=369 q=-0.0 size=N/A time=00:08:51.90 bitrate=N/A speed=15.4x    frame=12952 fps=369 q=-0.0 size=N/A time=00:09:00.20 bitrate=N/A speed=15.4x    frame=13154 fps=369 q=-0.0 size=N/A time=00:09:08.63 bitrate=N/A speed=15.4x    frame=13353 fps=370 q=-0.0 size=N/A time=00:09:16.93 bitrate=N/A speed=15.4x    frame=13535 fps=369 q=-0.0 size=N/A time=00:09:24.52 bitrate=N/A speed=15.4x    frame=13735 fps=370 q=-0.0 size=N/A time=00:09:32.86 bitrate=N/A speed=15.4x    frame=13947 fps=370 q=-0.0 size=N/A time=00:09:41.70 bitrate=N/A speed=15.4x    frame=14133 fps=370 q=-0.0 size=N/A time=00:09:49.46 bitrate=N/A speed=15.4x    frame=14331 fps=370 q=-0.0 size=N/A time=00:09:57.72 bitrate=N/A speed=15.4x    frame=14537 fps=371 q=-0.0 size=N/A time=00:10:06.31 bitrate=N/A speed=15.5x    frame=14732 fps=371 q=-0.0 size=N/A time=00:10:14.44 bitrate=N/A speed=15.5x    frame=14916 fps=371 q=-0.0 size=N/A time=00:10:22.12 bitrate=N/A speed=15.5x    frame=15112 fps=371 q=-0.0 size=N/A time=00:10:30.29 bitrate=N/A speed=15.5x    frame=15295 fps=370 q=-0.0 size=N/A time=00:10:37.92 bitrate=N/A speed=15.4x    frame=15500 fps=371 q=-0.0 size=N/A time=00:10:46.47 bitrate=N/A speed=15.5x    frame=15702 fps=371 q=-0.0 size=N/A time=00:10:54.90 bitrate=N/A speed=15.5x    frame=15911 fps=371 q=-0.0 size=N/A time=00:11:03.62 bitrate=N/A speed=15.5x    frame=16117 fps=372 q=-0.0 size=N/A time=00:11:12.21 bitrate=N/A speed=15.5x    frame=16314 fps=372 q=-0.0 size=N/A time=00:11:20.42 bitrate=N/A speed=15.5x    frame=16499 fps=372 q=-0.0 size=N/A time=00:11:28.14 bitrate=N/A speed=15.5x    frame=16708 fps=372 q=-0.0 size=N/A time=00:11:36.86 bitrate=N/A speed=15.5x    frame=16912 fps=372 q=-0.0 size=N/A time=00:11:45.37 bitrate=N/A speed=15.5x    frame=17113 fps=373 q=-0.0 size=N/A time=00:11:53.79 bitrate=N/A speed=15.5x    frame=17326 fps=373 q=-0.0 size=N/A time=00:12:02.63 bitrate=N/A speed=15.6x    frame=17525 fps=373 q=-0.0 size=N/A time=00:12:10.93 bitrate=N/A speed=15.6x    frame=17721 fps=373 q=-0.0 size=N/A time=00:12:19.11 bitrate=N/A speed=15.6x    frame=17922 fps=373 q=-0.0 size=N/A time=00:12:27.49 bitrate=N/A speed=15.6x    frame=18124 fps=374 q=-0.0 size=N/A time=00:12:35.92 bitrate=N/A speed=15.6x    frame=18315 fps=374 q=-0.0 size=N/A time=00:12:43.88 bitrate=N/A speed=15.6x    frame=18517 fps=374 q=-0.0 size=N/A time=00:12:52.31 bitrate=N/A speed=15.6x    frame=18720 fps=374 q=-0.0 size=N/A time=00:13:00.78 bitrate=N/A speed=15.6x    frame=18925 fps=374 q=-0.0 size=N/A time=00:13:09.33 bitrate=N/A speed=15.6x    frame=19134 fps=374 q=-0.0 size=N/A time=00:13:18.04 bitrate=N/A speed=15.6x    frame=19345 fps=375 q=-0.0 size=N/A time=00:13:26.84 bitrate=N/A speed=15.6x    frame=19538 fps=375 q=-0.0 size=N/A time=00:13:34.89 bitrate=N/A speed=15.6x    frame=19722 fps=375 q=-0.0 size=N/A time=00:13:42.57 bitrate=N/A speed=15.6x    frame=19930 fps=375 q=-0.0 size=N/A time=00:13:51.24 bitrate=N/A speed=15.6x    frame=20132 fps=375 q=-0.0 size=N/A time=00:13:59.67 bitrate=N/A speed=15.6x    frame=20331 fps=375 q=-0.0 size=N/A time=00:14:07.97 bitrate=N/A speed=15.7x    frame=20527 fps=375 q=-0.0 size=N/A time=00:14:16.14 bitrate=N/A speed=15.7x    frame=20721 fps=375 q=-0.0 size=N/A time=00:14:24.23 bitrate=N/A speed=15.7x    frame=20927 fps=376 q=-0.0 size=N/A time=00:14:32.83 bitrate=N/A speed=15.7x    frame=21123 fps=375 q=-0.0 size=N/A time=00:14:41.00 bitrate=N/A speed=15.7x    frame=21319 fps=376 q=-0.0 size=N/A time=00:14:49.17 bitrate=N/A speed=15.7x    frame=21525 fps=376 q=-0.0 size=N/A time=00:14:57.77 bitrate=N/A speed=15.7x    frame=21733 fps=376 q=-0.0 size=N/A time=00:15:06.44 bitrate=N/A speed=15.7x    frame=21934 fps=376 q=-0.0 size=N/A time=00:15:14.83 bitrate=N/A speed=15.7x    frame=22140 fps=376 q=-0.0 size=N/A time=00:15:23.42 bitrate=N/A speed=15.7x    frame=22349 fps=377 q=-0.0 size=N/A time=00:15:32.13 bitrate=N/A speed=15.7x    frame=22550 fps=377 q=-0.0 size=N/A time=00:15:40.52 bitrate=N/A speed=15.7x    frame=22740 fps=377 q=-0.0 size=N/A time=00:15:48.44 bitrate=N/A speed=15.7x    frame=22947 fps=377 q=-0.0 size=N/A time=00:15:57.08 bitrate=N/A speed=15.7x    frame=23153 fps=377 q=-0.0 size=N/A time=00:16:05.67 bitrate=N/A speed=15.7x    frame=23352 fps=377 q=-0.0 size=N/A time=00:16:13.97 bitrate=N/A speed=15.7x    frame=23559 fps=377 q=-0.0 size=N/A time=00:16:22.60 bitrate=N/A speed=15.7x    frame=23761 fps=377 q=-0.0 size=N/A time=00:16:31.03 bitrate=N/A speed=15.7x    frame=23963 fps=378 q=-0.0 size=N/A time=00:16:39.45 bitrate=N/A speed=15.7x    frame=24160 fps=378 q=-0.0 size=N/A time=00:16:47.67 bitrate=N/A speed=15.7x    frame=24359 fps=378 q=-0.0 size=N/A time=00:16:55.97 bitrate=N/A speed=15.8x    frame=24557 fps=378 q=-0.0 size=N/A time=00:17:04.23 bitrate=N/A speed=15.8x    frame=24768 fps=378 q=-0.0 size=N/A time=00:17:13.03 bitrate=N/A speed=15.8x    frame=24974 fps=378 q=-0.0 size=N/A time=00:17:21.62 bitrate=N/A speed=15.8x    frame=25175 fps=378 q=-0.0 size=N/A time=00:17:30.00 bitrate=N/A speed=15.8x    frame=25373 fps=378 q=-0.0 size=N/A time=00:17:38.26 bitrate=N/A speed=15.8x    frame=25586 fps=379 q=-0.0 size=N/A time=00:17:47.14 bitrate=N/A speed=15.8x    frame=25774 fps=378 q=-0.0 size=N/A time=00:17:54.99 bitrate=N/A speed=15.8x    frame=25982 fps=379 q=-0.0 size=N/A time=00:18:03.66 bitrate=N/A speed=15.8x    frame=26185 fps=379 q=-0.0 size=N/A time=00:18:12.13 bitrate=N/A speed=15.8x    frame=26394 fps=379 q=-0.0 size=N/A time=00:18:20.84 bitrate=N/A speed=15.8x    frame=26596 fps=379 q=-0.0 size=N/A time=00:18:29.27 bitrate=N/A speed=15.8x    frame=26800 fps=379 q=-0.0 size=N/A time=00:18:37.78 bitrate=N/A speed=15.8x    frame=26993 fps=379 q=-0.0 size=N/A time=00:18:45.83 bitrate=N/A speed=15.8x    frame=27178 fps=379 q=-0.0 size=N/A time=00:18:53.54 bitrate=N/A speed=15.8x    frame=27372 fps=379 q=-0.0 size=N/A time=00:19:01.64 bitrate=N/A speed=15.8x    frame=27569 fps=379 q=-0.0 size=N/A time=00:19:09.85 bitrate=N/A speed=15.8x    frame=27768 fps=379 q=-0.0 size=N/A time=00:19:18.15 bitrate=N/A speed=15.8x    frame=27964 fps=379 q=-0.0 size=N/A time=00:19:26.33 bitrate=N/A speed=15.8x    frame=28168 fps=379 q=-0.0 size=N/A time=00:19:34.84 bitrate=N/A speed=15.8x    frame=28358 fps=379 q=-0.0 size=N/A time=00:19:42.76 bitrate=N/A speed=15.8x    frame=28561 fps=379 q=-0.0 size=N/A time=00:19:51.23 bitrate=N/A speed=15.8x    frame=28748 fps=379 q=-0.0 size=N/A time=00:19:59.03 bitrate=N/A speed=15.8x    frame=28915 fps=379 q=-0.0 size=N/A time=00:20:05.99 bitrate=N/A speed=15.8x    frame=29089 fps=378 q=-0.0 size=N/A time=00:20:13.25 bitrate=N/A speed=15.8x    frame=29275 fps=378 q=-0.0 size=N/A time=00:20:21.01 bitrate=N/A speed=15.8x    frame=29448 fps=378 q=-0.0 size=N/A time=00:20:28.22 bitrate=N/A speed=15.8x    frame=29635 fps=378 q=-0.0 size=N/A time=00:20:36.02 bitrate=N/A speed=15.8x    frame=29811 fps=378 q=-0.0 size=N/A time=00:20:43.36 bitrate=N/A speed=15.8x    frame=29985 fps=377 q=-0.0 size=N/A time=00:20:50.62 bitrate=N/A speed=15.7x    frame=30157 fps=377 q=-0.0 size=N/A time=00:20:57.79 bitrate=N/A speed=15.7x    frame=30349 fps=377 q=-0.0 size=N/A time=00:21:05.80 bitrate=N/A speed=15.7x    frame=30548 fps=377 q=-0.0 size=N/A time=00:21:14.10 bitrate=N/A speed=15.7x    frame=30745 fps=377 q=-0.0 size=N/A time=00:21:22.32 bitrate=N/A speed=15.7x    frame=30953 fps=377 q=-0.0 size=N/A time=00:21:30.99 bitrate=N/A speed=15.7x    frame=31141 fps=377 q=-0.0 size=N/A time=00:21:38.83 bitrate=N/A speed=15.7x    frame=31332 fps=377 q=-0.0 size=N/A time=00:21:46.80 bitrate=N/A speed=15.7x    frame=31527 fps=377 q=-0.0 size=N/A time=00:21:54.93 bitrate=N/A speed=15.7x    frame=31705 fps=377 q=-0.0 size=N/A time=00:22:02.36 bitrate=N/A speed=15.7x    frame=31888 fps=377 q=-0.0 size=N/A time=00:22:09.99 bitrate=N/A speed=15.7x    frame=32078 fps=377 q=-0.0 size=N/A time=00:22:17.91 bitrate=N/A speed=15.7x    frame=32268 fps=377 q=-0.0 size=N/A time=00:22:25.84 bitrate=N/A speed=15.7x    frame=32469 fps=377 q=-0.0 size=N/A time=00:22:34.22 bitrate=N/A speed=15.7x    frame=32648 fps=377 q=-0.0 size=N/A time=00:22:41.69 bitrate=N/A speed=15.7x    frame=32805 fps=376 q=-0.0 size=N/A time=00:22:48.24 bitrate=N/A speed=15.7x    frame=32986 fps=376 q=-0.0 size=N/A time=00:22:55.79 bitrate=N/A speed=15.7x    frame=33165 fps=376 q=-0.0 size=N/A time=00:23:03.25 bitrate=N/A speed=15.7x    frame=33348 fps=376 q=-0.0 size=N/A time=00:23:10.88 bitrate=N/A speed=15.7x    frame=33513 fps=376 q=-0.0 size=N/A time=00:23:17.77 bitrate=N/A speed=15.7x    frame=33660 fps=375 q=-0.0 size=N/A time=00:23:23.90 bitrate=N/A speed=15.6x    frame=33800 fps=374 q=-0.0 size=N/A time=00:23:29.74 bitrate=N/A speed=15.6x    frame=33937 fps=374 q=-0.0 size=N/A time=00:23:35.45 bitrate=N/A speed=15.6x    frame=34111 fps=374 q=-0.0 size=N/A time=00:23:42.71 bitrate=N/A speed=15.6x    frame=34270 fps=373 q=-0.0 size=N/A time=00:23:49.34 bitrate=N/A speed=15.6x    frame=34396 fps=372 q=-0.0 size=N/A time=00:23:54.59 bitrate=N/A speed=15.5x    frame=34561 fps=372 q=-0.0 size=N/A time=00:24:01.48 bitrate=N/A speed=15.5x    [Parsed_psnr_16 @ 000001729913fc40] PSNR y:48.839149 u:50.222965 v:50.257074 average:49.257818 min:37.700696 max:inf
[out#0/null @ 000001728bba1d00] video:14903KiB audio:271276KiB subtitle:0KiB other streams:0KiB global headers:0KiB muxing overhead: unknown
frame=34683 fps=372 q=-0.0 Lsize=N/A time=00:24:06.57 bitrate=N/A speed=15.5x    
